<?xml version="1.0" encoding="utf-8"?>
<!-- Generator: Adobe Illustrator 26.3.1, SVG Export Plug-In . SVG Version: 6.00 Build 0)  -->
<svg version="1.1" id="圖層_1" xmlns="http://www.w3.org/2000/svg" xmlns:xlink="http://www.w3.org/1999/xlink" x="0px" y="0px"
	 viewBox="0 0 300 80" style="enable-background:new 0 0 300 80;" xml:space="preserve">
<style type="text/css">
	.st0{fill:#36383E;}
	.st1{fill:#FFFFFF;}
	.st2{fill:#6F83C1;}
</style>
<rect class="st0" width="300" height="80"/>
<g>
	<g>
		<g id="XMLID_00000114782811116459859980000001069660292926899598_">
			<g>
				<path class="st1" d="M36.8,43c0.12,0.2,1.52,2.32,4.97,3.36c-0.85,1.08-1.91,2.36-1.91,2.36c-6.3-0.2-8.69-4.33-8.69-4.33
					c0-9.18,4.1-16.62,4.1-16.62c4.11-3.07,8.01-2.99,8.01-2.99l0.29,0.34c-4.81,1.4-7.19,3.46-7.47,3.72
					c0.13-0.07,0.73-0.38,1.65-0.81c3.05-1.34,5.48-1.71,6.47-1.79c0.17-0.03,0.32-0.06,0.49-0.06c1.74-0.23,3.7-0.29,5.75-0.06
					c2.7,0.31,5.6,1.1,8.55,2.72c-0.26-0.24-2.52-2.21-7.06-3.6l0.4-0.46c0,0,3.9-0.08,8,2.99c0,0,4.11,7.44,4.11,16.62
					c0,0-2.43,4.13-8.72,4.33c0,0-1.03-1.23-1.88-2.31c3.73-1.05,5.15-3.39,5.15-3.39c-1.16,0.77-2.28,1.31-3.27,1.68
					c-1.43,0.6-2.8,1-4.14,1.23c-2.73,0.51-5.24,0.37-7.38-0.03c-1.62-0.31-3.02-0.77-4.19-1.23c-0.65-0.25-1.36-0.57-2.08-0.97
					c-0.08-0.05-0.17-0.08-0.25-0.14c-0.06-0.03-0.09-0.05-0.12-0.08C37.13,43.23,36.86,43.04,36.8,43z M55.79,38.58
					c0-1.74-1.28-3.17-2.9-3.17c-1.63,0-2.91,1.43-2.91,3.17c0,1.73,1.31,3.16,2.91,3.16C54.51,41.74,55.79,40.31,55.79,38.58z
					 M45.39,38.58c0.03-1.74-1.28-3.17-2.91-3.17c-1.62,0-2.9,1.43-2.9,3.17c0,1.73,1.31,3.16,2.9,3.16
					C44.11,41.74,45.39,40.31,45.39,38.58z"/>
				<path class="st2" d="M52.89,35.41c1.62,0,2.9,1.43,2.9,3.17c0,1.73-1.28,3.16-2.9,3.16c-1.6,0-2.91-1.43-2.91-3.16
					C49.98,36.84,51.26,35.41,52.89,35.41z"/>
				<path class="st2" d="M42.48,35.41c1.63,0,2.94,1.43,2.91,3.17c0,1.73-1.28,3.16-2.91,3.16c-1.59,0-2.9-1.43-2.9-3.16
					C39.58,36.84,40.86,35.41,42.48,35.41z"/>
				<path class="st2" d="M37.95,43.7c0.72,0.4,1.43,0.72,2.08,0.97c1.17,0.46,2.57,0.92,4.19,1.23c2.14,0.4,4.65,0.54,7.38,0.03
					c1.34-0.23,2.71-0.63,4.14-1.23c0.99-0.37,2.11-0.91,3.27-1.68c0,0-1.42,2.34-5.15,3.39c0.85,1.08,1.88,2.31,1.88,2.31
					c6.29-0.2,8.72-4.33,8.72-4.33c0-9.18-4.11-16.62-4.11-16.62c-4.1-3.07-8-2.99-8-2.99l-0.4,0.46c4.54,1.39,6.8,3.36,7.06,3.6
					c-2.95-1.62-5.85-2.41-8.55-2.72c-2.05-0.23-4.01-0.17-5.75,0.06c-0.17,0-0.32,0.03-0.49,0.06c-0.99,0.08-3.42,0.45-6.47,1.79
					c-0.92,0.43-1.52,0.74-1.65,0.81c0.28-0.26,2.66-2.32,7.47-3.72l-0.29-0.34c0,0-3.9-0.08-8.01,2.99c0,0-4.1,7.44-4.1,16.62
					c0,0,2.39,4.13,8.69,4.33c0,0,1.06-1.28,1.91-2.36c-3.45-1.04-4.85-3.16-4.97-3.36c0.06,0.04,0.33,0.23,0.78,0.48
					c0.03,0.03,0.06,0.05,0.12,0.08C37.78,43.62,37.87,43.65,37.95,43.7z M72.58,17.37V68.5l-6.13-5.42L63,59.89l-3.64-3.39
					l1.51,5.27H28.55c-3.22,0-5.84-2.62-5.84-5.87V17.37c0-3.25,2.62-5.87,5.84-5.87h38.19C69.96,11.5,72.58,14.12,72.58,17.37z"/>
			</g>
			<g>
			</g>
		</g>
	</g>
	<g>
		<path class="st1" d="M97.37,39.61v9.92c1.46,2.3,4.32,3.54,8.58,3.71c5.25,0.22,10.96,0.15,17.12-0.22
			c0.69-0.02,1.32-0.06,1.89-0.11c-0.64,1.31-1.06,2.67-1.26,4.09c0,0.05,0,0.09,0,0.11c-5.84,0.32-11.58,0.37-17.2,0.15
			c-0.2-0.02-0.38-0.04-0.56-0.04c-3.99-0.15-7-1.09-9.03-2.82c-0.5-0.42-0.94-0.87-1.34-1.34c-1.76,1.81-3.32,3.32-4.68,4.53
			l-2.04-4.31c1.78-1.26,3.21-2.38,4.27-3.34V43.7h-3.83v-4.09H97.37z M98.08,34.74l-3.05,2.97c-1.14-1.31-2.86-2.71-5.16-4.2
			c-0.2-0.12-0.38-0.24-0.56-0.33l2.9-2.71C94.96,32.03,96.91,33.46,98.08,34.74z M99.27,27.2l-3.16,2.82
			c-1.06-1.41-2.64-2.85-4.72-4.31c-0.25-0.17-0.47-0.32-0.67-0.45l3.01-2.6C96.36,24.38,98.2,25.89,99.27,27.2z M103.61,38.05
			v-1.86h-4.12V25.09h4.12c0.25-1.29,0.4-2.18,0.45-2.67l4.61,0.33c-0.15,0.42-0.48,1.2-1,2.34h3.83v8.54
			c1.36-2.9,2.33-6.59,2.9-11.07l3.94,0.59c-0.35,2.13-0.64,3.7-0.89,4.72h6.72v3.83h-1.26c-0.57,4.63-1.51,8.53-2.82,11.7
			c1.34,2.6,2.87,4.58,4.61,5.94c-0.99,0.79-1.86,1.81-2.6,3.05c-0.03,0.02-0.04,0.05-0.04,0.07c-1.54-1.39-2.86-3.11-3.97-5.16
			c-1.41,2.11-2.98,3.83-4.72,5.16c-0.64-0.94-1.42-1.86-2.34-2.75c-0.15,0.54-0.33,0.95-0.56,1.23c-0.5,0.54-1.15,0.88-1.97,1
			c-0.89,0.1-1.91,0.11-3.05,0.04c-0.05-1.09-0.3-2.08-0.74-2.97c0.77,0.1,1.39,0.15,1.86,0.15c0.35,0,0.62-0.11,0.82-0.33
			c0.27-0.35,0.46-1.46,0.56-3.34h-3.05c-0.79,2.97-2.29,5.17-4.49,6.61c-0.45-0.92-1.13-1.75-2.04-2.49
			c-0.1-0.07-0.19-0.14-0.26-0.19c1.98-1.29,3.18-3.49,3.6-6.61c0.07-0.54,0.14-1.11,0.19-1.71h-3.64v-3.05H103.61z M103.05,27.84
			v1.52h4.72v-1.52H103.05z M103.05,31.96v1.52h4.72v-1.52H103.05z M105.39,42.43h6.28c0,0.02-0.02,0.45-0.07,1.26
			c-0.1,2.6-0.26,4.47-0.48,5.61c2.08-1.56,3.76-3.58,5.05-6.05c-0.79-2.05-1.44-4.14-1.93-6.24c-0.2,0.4-0.57,0.99-1.11,1.78
			l-0.07-0.07v2.38h-7.54c0,0.1-0.01,0.25-0.04,0.45C105.44,41.96,105.42,42.26,105.39,42.43z M107.4,38.05h4.79
			c-0.92-0.69-1.7-1.24-2.34-1.63l0.15-0.22h-2.6V38.05z M119.14,31.7h-2.75v0.04c0.37,2.2,0.9,4.37,1.6,6.5
			C118.51,36.03,118.89,33.85,119.14,31.7z"/>
		<path class="st1" d="M141.5,32.14h-14.41v-3.57h14.41V32.14z M140.31,55.77h-7.76v1.49h-3.79V44.29h11.55V55.77z M140.27,37.31
			h-11.4v-3.45h11.4V37.31z M128.87,39.05h11.4v3.38h-11.4V39.05z M140.16,26.91h-11.18v-3.42h11.18V26.91z M132.55,47.86v4.38h3.9
			v-4.38H132.55z M162.33,33.52v3.23H141.5v-3.23h8.25V32h-6.39v-3.05h6.39v-1.34h-7.32v-3.23h7.32V22.3h4.31v2.08h7.61v3.23h-7.61
			v1.34h7.06V32h-7.06v1.52H162.33z M160.29,53.58c0,0.94-0.11,1.68-0.33,2.21c-0.22,0.53-0.66,0.95-1.3,1.24
			c-0.62,0.3-1.37,0.48-2.27,0.54c-0.89,0.06-1.96,0.09-3.19,0.09c-0.07-0.57-0.22-1.19-0.45-1.86c-0.22-0.67-0.47-1.25-0.74-1.75
			h3.45c0.27,0,0.45-0.04,0.52-0.13c0.07-0.09,0.11-0.23,0.11-0.43v-2.79h-7.87v6.98h-4.12V38.2h16.19V53.58z M148.22,41.39v1.71
			h7.87v-1.71H148.22z M156.09,47.78V46h-7.87v1.78H156.09z"/>
		<path class="st1" d="M195.06,45.01l3.53,1.34c-1.16,2.25-2.6,4.22-4.31,5.91c0.77,1.14,1.62,1.72,2.56,1.75
			c0.57,0,0.95-0.38,1.15-1.15c0.15-0.57,0.26-1.44,0.33-2.6c0.84,0.87,1.82,1.56,2.93,2.08c-0.4,2.53-1.07,4.12-2.01,4.79
			c-0.64,0.42-1.55,0.63-2.71,0.63c-2.06-0.02-3.8-1.04-5.24-3.05c-1.61,1.11-3.52,2.12-5.72,3.01c-0.52-0.92-1.31-1.88-2.38-2.9
			c2.48-0.92,4.59-2.05,6.35-3.42c-0.74-1.91-1.33-4.04-1.75-6.39h-4.31c-0.02,0.42-0.09,0.9-0.19,1.45
			c2.18,1.46,3.69,2.62,4.53,3.49l-2.41,3.01c-0.64-0.69-1.62-1.56-2.93-2.6c-1.02,3.27-2.7,5.71-5.05,7.32
			c-0.54-1.04-1.29-1.96-2.23-2.75c-0.12-0.07-0.24-0.15-0.33-0.22c2.45-1.63,3.96-4.43,4.53-8.39c0.05-0.42,0.1-0.85,0.15-1.3
			h-2.38v-1.71l-1.52,2.23c-0.22-0.69-0.85-2.2-1.89-4.53v16.71h-4.01V43.68c-1.02,3.17-2.03,5.56-3.04,7.17
			c-0.32-0.94-0.95-2.23-1.89-3.86c1.73-2.62,3.16-6.33,4.27-11.11c0.15-0.59,0.27-1.16,0.37-1.71h-3.79v-4.09h4.08v-7.84h4.01v7.84
			h3.38c-0.22-0.22-0.5-0.47-0.82-0.74l1.67-2.45l0.63,0.48c0.84-1.91,1.46-3.54,1.86-4.9l3.38,1.3c-0.35,0.57-0.85,1.46-1.52,2.67
			c-0.72,1.31-1.24,2.23-1.56,2.75c0.27,0.3,0.58,0.63,0.93,1c0.82-1.41,1.46-2.65,1.93-3.71l2.56,1.26
			c-0.05-2.38-0.07-4.2-0.07-5.46h4.01c-0.02,2.13-0.02,4.2,0,6.2l1.08-1.6l0.63,0.45c0.84-1.86,1.46-3.49,1.86-4.9l3.38,1.3
			c-1.91,3.32-2.95,5.13-3.12,5.42l1,1c0.87-1.56,1.51-2.79,1.93-3.68L200,28c-1.98,3.12-3.65,5.6-5.01,7.43l2.27-0.15
			c-0.2-0.57-0.41-1.09-0.63-1.56l2.53-0.93c1.06,2.13,1.72,4.01,1.97,5.65l-2.67,1.15c-0.15-0.84-0.25-1.34-0.3-1.49l-2.82,0.37
			c1.26,0.82,2.23,1.61,2.9,2.38l-0.74,0.67h2.9v3.49H195.06z M177.3,41.52h9.92c-0.05-0.5-0.15-1.32-0.3-2.49l-2.6,1.04
			c-0.07-0.59-0.12-0.98-0.15-1.15c-0.87,0.1-2.14,0.25-3.83,0.45c-1.44,0.17-2.49,0.3-3.16,0.37l-0.59-3.34l1.19-0.07
			c1.04-1.49,1.79-2.61,2.27-3.38c-0.62-0.77-1.56-1.7-2.82-2.79v4.01h-3.45v1.63C174.64,37.09,175.82,39,177.3,41.52z
			 M182.76,34.17l2.56-0.78c0.67,1.44,1.15,2.85,1.45,4.23c-0.27-2.97-0.45-5.88-0.52-8.73c-2.03,3.12-3.68,5.5-4.94,7.13l2.04-0.15
			C183.11,35.08,182.91,34.52,182.76,34.17z M190.49,35.77l0.82-0.07c1.02-1.39,1.66-2.3,1.93-2.75c-0.84-1.02-1.86-2.04-3.05-3.08
			C190.22,31.72,190.32,33.69,190.49,35.77z M191.12,41.52h3.23c-0.59-0.52-1.2-0.99-1.82-1.41l1.71-1.49
			c-0.45,0.05-1.1,0.12-1.97,0.22c-0.62,0.07-1.08,0.12-1.37,0.15l-0.22-1.04C190.77,39.15,190.92,40.33,191.12,41.52z
			 M194.84,45.01h-3.08c0.22,1.11,0.51,2.27,0.85,3.45C193.62,47.23,194.37,46.08,194.84,45.01z"/>
		<path class="st1" d="M238.18,41.19h-8.88c2.8,2.11,6.15,3.67,10.07,4.68c-1.04,0.92-1.99,2.12-2.86,3.6l-1-0.33v7.61h-4.38v-0.67
			h-4.49v0.89h-4.09V45.01h5.2c-1.44-1.06-2.8-2.34-4.09-3.83h-6.31c-1.41,1.49-2.85,2.76-4.31,3.83h6.09v11.74h-4.31v-0.67h-4.09
			v0.89h-4.12v-8.25c-0.1,0.05-0.26,0.12-0.48,0.22c-0.42,0.17-0.73,0.3-0.93,0.37c-0.5-1.21-1.23-2.33-2.19-3.34
			c-0.07-0.07-0.14-0.14-0.19-0.19c3.27-1.21,6.09-2.75,8.47-4.61h-7.54v-3.9h11.44c0.89-1.14,1.58-2.23,2.08-3.27h-10.66V23.03
			h12.48V33.8l2.9,0.56c-0.42,0.87-0.97,1.85-1.63,2.93h8.39c-1.46-0.89-2.72-1.55-3.79-1.97l1.38-1.3h-3.86V23.03h13v10.99h-6.2
			c1.49,0.67,2.71,1.36,3.68,2.08l-1.23,1.19h6.46V41.19z M214.86,30.19v-3.38h-4.27v3.38H214.86z M214.82,52.15v-3.27h-4.09v3.27
			H214.82z M226.59,26.81v3.38h4.53v-3.38H226.59z M226.63,52.15h4.49v-3.27h-4.49V52.15z"/>
		<path class="st1" d="M255.82,22.84h5.16c-0.02,0.5-0.06,1.23-0.11,2.19c0.37,6.61,1.99,12.43,4.87,17.46
			c2.85,4.93,6.7,8.53,11.55,10.81c-1.54,1.19-2.71,2.48-3.53,3.86c-7.18-3.57-12.16-9.89-14.93-18.98
			c-0.02-0.05-0.04-0.09-0.04-0.11c-2.58,8.54-7.27,14.91-14.08,19.09c-0.84-1.21-2.1-2.41-3.79-3.6
			c9.19-5.08,14.11-14.24,14.78-27.49c0.02-0.47,0.05-1.13,0.07-1.97C255.81,23.48,255.82,23.06,255.82,22.84z"/>
	</g>
</g>
</svg>
